<?xml version="1.0" encoding="utf-8"?>
<!-- Generator: Adobe Illustrator 28.0.0, SVG Export Plug-In . SVG Version: 6.00 Build 0)  -->
<svg version="1.1" id="Layer_1" xmlns="http://www.w3.org/2000/svg" xmlns:xlink="http://www.w3.org/1999/xlink" x="0px" y="0px"
	 viewBox="0 0 16 16" style="enable-background:new 0 0 16 16;" xml:space="preserve">
<style type="text/css">
	.st0{fill:#A39166;}
</style>
<path class="st0" d="M14.2,12.4c0,0.5-0.1,1-0.3,1.6c-0.4,0.9-1,1.6-1.9,2.1c-0.9,0.4-1.9,0.7-3.2,0.7c-1.2,0-2.3-0.2-3.3-0.5
	c-1-0.4-1.9-1-2.9-1.9l-0.1-0.1l0.2-0.2l0.9-1.3L3.8,13c0.4,0.8,0.8,1.4,1.4,2.1c1,0.6,2.1,0.9,3.2,0.9c1.5,0,3.9-1.1,4.2-2.7
	c0.1-0.4,0-0.7-0.1-1c-0.2-0.3-0.4-0.6-0.8-0.8c-0.4-0.2-0.8-0.5-1.4-0.7c-0.6-0.2-1.2-0.4-1.9-0.6C7.7,10.2,7.1,10,6.4,9.8
	C5.7,9.6,5.1,9.3,4.5,9C3.9,8.6,3.5,8.1,3.1,7.6C2.7,7,2.5,6.3,2.6,5.4c0-0.8,0.2-1.4,0.6-2c0.3-0.5,0.8-1,1.3-1.3
	C5,1.9,5.6,1.6,6.2,1.5c0.6-0.1,1.2-0.2,1.8-0.2c0.5,0,0.9,0.1,1.4,0.1c0.5,0.1,0.9,0.2,1.4,0.4c0,0,0,0,0.1,0l0.2,0.1l-0.1,0.2
	l-0.3,1.5l-0.3-0.3C9.6,2.8,9,2.4,8.1,2C6.7,2.1,5.1,2.8,4.6,3.9C4.4,4.2,4.3,4.6,4.3,5c0,0.3,0.1,0.6,0.2,0.8
	C4.7,6,4.9,6.2,5.2,6.4C5.6,6.6,6,6.8,6.6,6.9c0.6,0.2,1.3,0.4,2.2,0.7c1,0.3,1.8,0.6,2.5,0.9c0.7,0.3,1.2,0.6,1.7,1
	c0.4,0.4,0.7,0.8,0.9,1.3C14.1,11.3,14.2,11.8,14.2,12.4z"/>
</svg>
