<?xml version="1.0" encoding="utf-8"?>
<!-- Generator: Adobe Illustrator 28.0.0, SVG Export Plug-In . SVG Version: 6.00 Build 0)  -->
<svg version="1.1" id="Layer_1" xmlns="http://www.w3.org/2000/svg" xmlns:xlink="http://www.w3.org/1999/xlink" x="0px" y="0px"
	 viewBox="0 0 60 60" style="enable-background:new 0 0 60 60;" xml:space="preserve">
<style type="text/css">
	.st0{fill:#A39166;}
</style>
<path class="st0" d="M51.3,42c0,1.8-0.4,3.7-1.2,5.7c-1.4,3.4-3.8,5.9-7,7.5c-3.2,1.6-7,2.4-11.5,2.4c-4.3,0-8.3-0.6-11.8-1.9
	c-3.6-1.3-7-3.5-10.3-6.8L9,48.3l0.7-0.8l3.2-4.7l0.7,1.3c1.6,3.1,3,5,5.1,7.5c3.8,2.2,7.6,3.3,11.4,3.3c5.3,0,13.9-3.9,15-9.8
	c0.2-1.4,0.1-2.6-0.5-3.6c-0.6-1.1-1.6-2-2.9-2.9c-1.4-0.9-3.1-1.7-5.1-2.4c-2-0.7-4.3-1.4-6.7-2c-2.1-0.5-4.4-1.2-6.8-1.9
	c-2.5-0.7-4.8-1.7-6.9-3c-2.1-1.3-3.9-3-5.2-5c-1.3-2-2-4.7-1.8-7.8c0.1-2.8,0.9-5.2,2.1-7.1c1.3-1.9,2.9-3.5,4.8-4.6
	c1.9-1.2,4-2,6.3-2.5c2.2-0.5,4.5-0.8,6.6-0.8c1.7,0,3.3,0.2,5,0.5c1.7,0.3,3.4,0.7,5,1.3c0.1,0,0.1,0,0.2,0.1L40,3.9l-0.5,0.9
	l-0.9,5.6l-1.2-0.9c-2.9-2.3-5-3.6-8.3-5.1c-4.8,0.5-10.6,3-12.6,6.8c-0.6,1.2-0.9,2.5-0.9,4c0,1.2,0.3,2.2,0.7,3
	c0.5,0.8,1.3,1.5,2.5,2.1c1.3,0.7,3,1.3,5.1,2c2.2,0.7,4.8,1.5,8,2.5c3.5,1,6.5,2.1,9,3.2c2.5,1.1,4.5,2.3,6,3.7
	c1.6,1.4,2.7,2.9,3.4,4.6C51,37.8,51.3,39.7,51.3,42z"/>
</svg>
