<?xml version="1.0" encoding="utf-8"?>
<!-- Generator: Adobe Illustrator 28.0.0, SVG Export Plug-In . SVG Version: 6.00 Build 0)  -->
<svg version="1.1" id="Layer_1" xmlns="http://www.w3.org/2000/svg" xmlns:xlink="http://www.w3.org/1999/xlink" x="0px" y="0px"
	 viewBox="0 0 200 80.2" style="enable-background:new 0 0 200 80.2;" xml:space="preserve">
<style type="text/css">
	.st0{fill:#A39166;}
	.st1{fill:#231F20;}
</style>
<g>
	<path class="st0" d="M27.5,43.8c0,1.1-0.2,2.3-0.7,3.4c-0.8,2.1-2.1,3.6-4,4.6c-1.8,1-4,1.4-6.5,1.4c-2.4,0-4.7-0.4-6.7-1.2
		c-2-0.8-4-2.2-5.9-4.1l-0.3-0.3L4,47.2l1.8-2.8l0.4,0.8c0.9,1.9,1.7,3.1,2.9,4.6c2.1,1.4,4.3,2,6.5,2c3,0,7.9-2.4,8.5-5.9
		c0.1-0.9,0-1.6-0.3-2.2c-0.4-0.6-0.9-1.2-1.6-1.7c-0.8-0.5-1.7-1-2.9-1.5c-1.1-0.4-2.4-0.9-3.8-1.2c-1.2-0.3-2.5-0.7-3.9-1.1
		c-1.4-0.4-2.7-1.1-3.9-1.8c-1.2-0.8-2.2-1.8-2.9-3c-0.8-1.2-1.1-2.8-1-4.7c0.1-1.7,0.5-3.1,1.2-4.3c0.7-1.2,1.6-2.1,2.7-2.8
		c1.1-0.7,2.3-1.2,3.5-1.5c1.3-0.3,2.5-0.5,3.8-0.5c0.9,0,1.9,0.1,2.8,0.3c0.9,0.2,1.9,0.4,2.8,0.8c0,0,0.1,0,0.1,0l0.4,0.2
		l-0.3,0.5l-0.5,3.4L19.7,24c-1.7-1.4-2.9-2.2-4.7-3.1c-2.7,0.3-6,1.8-7.1,4.2c-0.4,0.7-0.5,1.5-0.5,2.4c0,0.7,0.1,1.4,0.4,1.8
		c0.3,0.5,0.8,0.9,1.4,1.3c0.7,0.4,1.7,0.8,2.9,1.2c1.2,0.4,2.7,0.9,4.5,1.5c2,0.6,3.7,1.3,5.1,2c1.4,0.7,2.6,1.4,3.4,2.2
		c0.9,0.8,1.5,1.8,1.9,2.8C27.3,41.2,27.5,42.4,27.5,43.8z"/>
	<path class="st0" d="M51.1,50.9l-0.3,0.3c-0.7,0.8-1.5,1.3-2.3,1.6c-0.8,0.3-1.7,0.4-2.6,0.4c-0.8,0-2.6-0.1-3.5-0.4
		c-0.8-0.3-1.6-0.8-2.2-1.6c-0.6-0.7-1.2-1.7-1.5-2.9c-0.4-1.2-0.6-2.7-0.6-4.5V33.6h-4v-1.2l0.3-0.1c2.5-1,6-3.6,7.8-6.7l0.9-1.6
		v19.9c0,2.6,0.2,4.5,0.7,5.7c0.3,0.7,1,2.2,2.4,2.2c1.1,0,2.2-1.2,3-2.2l0.4-0.5L51.1,50.9z"/>
	<path class="st0" d="M74.1,28.1L74,28.5c-0.1,0.6-0.2,1.1-0.3,1.7c-0.1,0.5-0.2,1.1-0.3,1.7l-0.1,0.8l-0.6-0.5
		c-1.2-0.9-4.2-1-5.4-0.4c-0.7,0.3-1.5,1.3-2.1,2.9v18.5h-5V28.1l3.6-0.1l1.3,2.9l0,0.4c0.5-0.7,1.2-1.4,1.9-2
		c1.3-1,2.9-1.5,4.9-1.5c0.5,0,1.1,0.1,1.7,0.1L74.1,28.1z"/>
	<path class="st0" d="M102,40.6v12.6h-3.7l-0.8-1.7c-0.5,0.3-1.1,0.7-1.9,1c-1.2,0.5-3.1,0.7-4.3,0.7c-1,0-2.1-0.1-3.4-0.4
		c-1.2-0.3-2.2-0.9-3-1.7c-0.8-0.8-1.4-1.7-1.8-2.8c-0.4-1-0.6-2.1-0.6-3.3c0-1.1,0.2-2.2,0.6-3.2c0.4-1,1-2,1.8-2.8
		c0.8-0.8,1.8-1.4,3-1.7c0.8-0.2,2-0.4,2.9-0.5l0.4-0.1c0.9-0.1,1.8-0.3,2.6-0.5c0.8-0.2,1.5-0.4,2.1-0.6c0.7-0.3,1-0.7,0.9-1.4
		c-0.1-1.1-0.5-2.2-1.1-3c-1.6-2-4.6-2.5-6.4-1.1c-1.7,1.3-1.9,3-2,4.3c0,0.2,0,0.4-0.1,0.6l-0.1,0.7l-4.7-2.4l0.3-0.5
		c3.5-5.1,8.3-5.1,10.3-5.1l0.2,0c4.4,0,6.7,3,7.3,4.8c0.4,1.1,0.1,2.5-0.8,3.1c-0.9,0.7-2.5,1.3-4.8,1.9c-3.3,0.9-6.5,1.7-7.4,5.4
		c-0.5,2.1-0.2,4.4,0.8,6c0.6,1,1.5,1.6,2.4,1.8c3.2,0.6,5-0.7,6.1-1.8c0.1-0.6,0-3.4-0.1-6l0-0.3L102,40.6z"/>
	<path class="st0" d="M134.5,40.6c0,2.2-0.3,4.1-0.9,5.6c-0.6,1.6-1.5,2.9-2.5,3.9c-1,1-2.2,1.8-3.5,2.3c-2.7,1-5.4,1-7.8-0.1
		c-0.8-0.4-1.5-0.8-2.1-1.4v11.6h-5.1V28.4h3.9l0.7,1.9c0.7-0.6,1.4-1.1,2.3-1.4c2.2-0.9,5-0.9,7.7,0.1c1.3,0.5,2.6,1.3,3.6,2.3
		c1.1,1,2,2.3,2.7,3.9C134.1,36.6,134.4,38.5,134.5,40.6z M128.8,39.4c-0.1-1.5-0.4-2.8-0.8-3.8c-0.8-1.8-2.7-4.2-5.1-5.1
		c-1.3-0.5-2.4-0.4-3.5,0.1c-0.6,0.3-1.3,0.9-1.8,1.4v16.3c0.7,0.7,1.4,1.5,1.9,1.8c0.9,0.5,1.9,0.7,3,0.7c4.1,0,5.6-4.5,6.1-6.4
		C128.9,43.1,129,41.4,128.8,39.4z"/>
	<path class="st0" d="M165.1,40.4c-0.9,2-3.9,1.8-4,1.8c-0.1,0-9,0-11.8,0c0.1,2.2,0.7,3.8,2,5.4c0.9,1.2,2.1,2.1,3.3,2.6
		c1.6,0.7,3,0.8,4.3,0.3c2.4-0.9,3.5-3.5,3.5-3.5l0.3-0.6l1.7,1.4l-0.3,0.4c-2.6,3.3-5.8,5-9.2,5c-0.3,0-0.6,0-1,0l-0.1,0
		c-7.6-0.5-9.4-7.4-9.8-9.4l0-0.2c0.3-2.7,4.5-3,4.6-3c0.4,0,9.3,0,11.5,0c0.3-3.7-0.4-6.6-2.1-8.4c-1.5-1.6-3.3-2-3.6-2
		c-5.4,0.6-5.8,9-5.8,9.1l0,0.4l-0.4,0c-3.3,0.4-4.6-1-4.6-1l-0.2-0.2l0-0.2c1.8-9.6,8.4-10.2,10.9-10.3l0.1,0
		c4.6-0.1,7.2,2.3,8.6,4.4C165.1,35.4,165.6,39.2,165.1,40.4z"/>
	<path class="st0" d="M195.3,53.2h-5.8l-6.9-9.8l-6.9,9.8l-1.9,0l7.9-11.1l-10.1-14.3h5.7l7.2,10.2l7.2-10.2l1.9,0l-8.2,11.6
		L195.3,53.2z"/>
</g>
<g>
	<path class="st1" d="M61.5,11h0.9v2.6c-0.7,0.6-1.6,0.9-2.6,0.9c-2.1,0-3.6-1.5-3.6-3.5c0-2,1.5-3.5,3.6-3.5c1.1,0,2,0.4,2.6,1
		l-0.6,0.6c-0.6-0.5-1.2-0.8-2-0.8c-1.6,0-2.7,1.1-2.7,2.6c0,1.5,1.1,2.6,2.7,2.6c0.6,0,1.1-0.1,1.6-0.4V11z"/>
	<path class="st1" d="M77.6,14.4l-1.5-2.1c-0.1,0-0.3,0-0.4,0h-1.7v2.1h-1V7.6h2.6c1.8,0,2.8,0.9,2.8,2.4c0,1-0.5,1.8-1.5,2.1
		l1.6,2.3H77.6z M77.6,10c0-1-0.6-1.5-1.9-1.5h-1.6v3.1h1.6C77,11.5,77.6,10.9,77.6,10z"/>
	<path class="st1" d="M88.5,11c0-2,1.5-3.5,3.6-3.5c2.1,0,3.6,1.5,3.6,3.5c0,2-1.5,3.5-3.6,3.5C90,14.5,88.5,13,88.5,11z M94.8,11
		c0-1.5-1.1-2.6-2.6-2.6c-1.5,0-2.6,1.1-2.6,2.6c0,1.5,1.1,2.6,2.6,2.6C93.6,13.6,94.8,12.5,94.8,11z"/>
	<path class="st1" d="M106,11.5V7.6h1v3.8c0,1.5,0.7,2.2,1.9,2.2c1.2,0,1.9-0.7,1.9-2.2V7.6h0.9v3.9c0,2-1.1,3-2.9,3
		C107.1,14.5,106,13.4,106,11.5z"/>
	<path class="st1" d="M128.1,10c0,1.5-1.1,2.4-2.8,2.4h-1.7v2.1h-1V7.6h2.6C127,7.6,128.1,8.5,128.1,10z M127.1,10
		c0-1-0.6-1.5-1.9-1.5h-1.6v3h1.6C126.5,11.5,127.1,10.9,127.1,10z"/>
	<path class="st1" d="M143.3,13.6v0.8h-4.9V7.6h4.8v0.8h-3.8v2.1h3.4v0.8h-3.4v2.2H143.3z"/>
</g>
<g>
	<path class="st1" d="M61.9,74.3l0-4.8l-2.4,4h-0.4l-2.4-4v4.8h-0.9v-6.6h0.8l2.8,4.7l2.7-4.7h0.8l0,6.6H61.9z"/>
	<path class="st1" d="M81.4,72.7h-3.5l-0.7,1.7h-1l3-6.6h0.9l3,6.6h-1L81.4,72.7z M81.1,71.9l-1.4-3.3l-1.4,3.3H81.1z"/>
	<path class="st1" d="M101.8,74.4l-1.5-2.1c-0.1,0-0.3,0-0.4,0h-1.7v2.1h-1v-6.8h2.6c1.8,0,2.8,0.9,2.8,2.4c0,1-0.5,1.8-1.5,2.1
		l1.6,2.3H101.8z M101.7,70c0-1-0.6-1.5-1.9-1.5h-1.6v3.1h1.6C101.1,71.5,101.7,71,101.7,70z"/>
	<path class="st1" d="M116.9,71c0-1.9,1.5-3.4,3.5-3.4c2,0,3.5,1.4,3.5,3.4c0,2-1.5,3.4-3.5,3.4C118.4,74.4,116.9,73,116.9,71z
		 M123,71c0-1.5-1.1-2.5-2.6-2.5c-1.5,0-2.6,1.1-2.6,2.5c0,1.5,1.1,2.6,2.6,2.6C121.9,73.6,123,72.5,123,71z"/>
	<path class="st1" d="M137.7,71c0-2,1.5-3.4,3.5-3.4c1,0,1.9,0.4,2.5,1l-0.6,0.6c-0.5-0.5-1.1-0.8-1.9-0.8c-1.5,0-2.6,1.1-2.6,2.5
		c0,1.5,1.1,2.6,2.6,2.6c0.7,0,1.4-0.3,1.9-0.8l0.6,0.6c-0.6,0.7-1.5,1-2.5,1C139.2,74.4,137.7,73,137.7,71z"/>
</g>
</svg>
